<svg height="480pt" viewBox="-48 0 480 480" width="480pt" xmlns="http://www.w3.org/2000/svg"><path d="m184 192h16v176h-16zm0 0" fill="#bc8f6f"/><path d="m183.640625 192h8v176h-8zm0 0" fill="#cb9e78"/><path d="m384 96-65.214844-52.175781c-35.464844-28.367188-79.527344-43.824219-124.945312-43.824219h-3.679688c-45.417968 0-89.480468 15.457031-124.9375 43.824219l-65.222656 52.175781 65.214844 52.175781c35.464844 28.367188 79.527344 43.824219 124.945312 43.824219h3.6875c45.417969 0 89.480469-15.457031 124.9375-43.824219zm0 0" fill="#d9d7d8"/><path d="m176 .601562c-40.351562 2.863282-79.023438 17.8125-110.785156 43.222657l-65.214844 52.175781 65.214844 52.175781c31.761718 25.410157 70.433594 40.359375 110.785156 43.222657 40.351562-2.863282 79.023438-17.8125 110.785156-43.222657l65.214844-52.175781-65.214844-52.175781c-31.761718-25.410157-70.433594-40.359375-110.785156-43.222657zm0 0" fill="#efedee"/><path d="m256 96c0 35.347656-28.652344 64-64 64s-64-28.652344-64-64 28.652344-64 64-64 64 28.652344 64 64zm0 0" fill="#656665"/><path d="m224 96c0 17.671875-14.328125 32-32 32s-32-14.328125-32-32 14.328125-32 32-32 32 14.328125 32 32zm0 0" fill="#999"/><path d="m256 400-16 80h-96l-16-80" fill="#8d5655"/><path d="m112 368h160v32h-160zm0 0" fill="#7e4e4d"/><path d="m256 288h-32c-17.671875 0-32 14.328125-32 32h32c17.671875 0 32-14.328125 32-32zm0 0" fill="#599072"/><path d="m112 272h32c26.511719 0 48 21.488281 48 48h-32c-26.511719 0-48-21.488281-48-48zm0 0" fill="#599072"/><g fill="#70b48f"><path d="m196.441406 304h27.558594c11.816406 0 22.015625-6.472656 27.558594-16h-27.558594c-11.816406 0-22.015625 6.472656-27.558594 16zm0 0"/><path d="m144 272h-29.207031c6.597656 18.632812 24.320312 32 45.207031 32h29.207031c-6.589843-18.632812-24.320312-32-45.207031-32zm0 0"/></g></svg>